<svg width="623.1687499999999px" height="108.8px" xmlns="http://www.w3.org/2000/svg" viewBox="-61.584374999999966 20.6 623.1687499999999 108.8" style="background: rgba(89, 104, 134, 0);" preserveAspectRatio="xMidYMid"><defs><filter id="editing-hover" x="-100%" y="-100%" width="300%" height="300%"><feFlood flood-color="#052b4a" result="flood"></feFlood><feComposite operator="in" in2="SourceAlpha" in="flood" result="shadow"></feComposite><feOffset dx="-4" dy="-4" in="SourceGraphic" result="offset-1"></feOffset><feOffset dx="4" dy="4" in="shadow" result="offset-2"></feOffset><feMerge><feMergeNode in="offset-2"></feMergeNode><feMergeNode in="offset-1"></feMergeNode></feMerge></filter></defs><g filter="url(#editing-hover)"><g transform="translate(29.199995040893555, 106.37265014648438)"><path d="M1.92-0.83L1.92-0.83L4.10-13.50L4.10-13.50Q11.14-11.78 16.83-11.78L16.83-11.78L16.83-11.78Q19.71-11.78 21.92-11.87L21.92-11.87L21.92-11.87Q24.13-11.97 25.86-12.22L25.86-12.22L25.86-16.06L18.94-16.64L18.94-16.64Q14.27-17.09 11.14-18.18L11.14-18.18L11.14-18.18Q8-19.26 6.11-21.15L6.11-21.15L6.11-21.15Q4.22-23.04 3.42-25.70L3.42-25.70L3.42-25.70Q2.62-28.35 2.62-31.94L2.62-31.94L2.62-31.94Q2.62-36.86 3.65-40.16L3.65-40.16L3.65-40.16Q4.67-43.46 6.91-45.47L6.91-45.47L6.91-45.47Q9.15-47.49 12.70-48.32L12.70-48.32L12.70-48.32Q16.26-49.15 21.38-49.15L21.38-49.15L21.38-49.15Q31.55-49.15 39.81-47.23L39.81-47.23L37.89-34.94L37.89-34.94Q30.72-36.10 26.43-36.10L26.43-36.10L26.43-36.10Q22.14-36.10 19.14-35.71L19.14-35.71L19.14-31.94L24.64-31.42L24.64-31.42Q29.70-30.91 33.09-29.73L33.09-29.73L33.09-29.73Q36.48-28.54 38.56-26.62L38.56-26.62L38.56-26.62Q40.64-24.70 41.50-22.08L41.50-22.08L41.50-22.08Q42.37-19.46 42.37-16.06L42.37-16.06L42.37-16.06Q42.37-11.20 41.09-7.87L41.09-7.87L41.09-7.87Q39.81-4.54 38.02-2.82L38.02-2.82L38.02-2.82Q36.54-1.41 34.37-0.61L34.37-0.61L34.37-0.61Q32.19 0.19 29.76 0.58L29.76 0.58L29.76 0.58Q27.33 0.96 24.86 1.06L24.86 1.06L24.86 1.06Q22.40 1.15 20.42 1.15L20.42 1.15L20.42 1.15Q15.42 1.15 10.82 0.64L10.82 0.64L10.82 0.64Q6.21 0.13 1.92-0.83ZM63.49-38.40L63.49 0L48.13 0L48.13-36.48L63.49-38.40ZM47.30-45.63L47.30-45.63L47.30-45.63Q47.30-47.36 47.68-48.54L47.68-48.54L47.68-48.54Q48.06-49.73 49.02-50.46L49.02-50.46L49.02-50.46Q49.98-51.20 51.65-51.52L51.65-51.52L51.65-51.52Q53.31-51.84 55.87-51.84L55.87-51.84L55.87-51.84Q58.43-51.84 60.06-51.52L60.06-51.52L60.06-51.52Q61.70-51.20 62.66-50.46L62.66-50.46L62.66-50.46Q63.62-49.73 64-48.54L64-48.54L64-48.54Q64.38-47.36 64.38-45.63L64.38-45.63L64.38-45.63Q64.38-43.90 64-42.75L64-42.75L64-42.75Q63.62-41.60 62.66-40.86L62.66-40.86L62.66-40.86Q61.70-40.13 60.06-39.84L60.06-39.84L60.06-39.84Q58.43-39.55 55.87-39.55L55.87-39.55L55.87-39.55Q54.02-39.55 52.45-39.68L52.45-39.68L52.45-39.68Q50.88-39.81 49.73-40.42L49.73-40.42L49.73-40.42Q48.58-41.02 47.94-42.24L47.94-42.24L47.94-42.24Q47.30-43.46 47.30-45.63ZM84.10-3.52L83.97-3.97L75.90-3.97L67.33-38.40L82.69-38.40L86.91-13.44L87.68-13.44L91.90-38.40L107.26-38.40L97.66 0L97.66 0Q96.64 3.78 95.33 6.21L95.33 6.21L95.33 6.21Q94.02 8.64 92.29 10.08L92.29 10.08L92.29 10.08Q90.56 11.52 88.29 12.10L88.29 12.10L88.29 12.10Q86.02 12.67 83.01 12.67L83.01 12.67L68.10 12.67L68.10 2.69L75.33 1.28L75.33 1.28Q80.90 0 82.56-1.47L82.56-1.47L82.56-1.47Q83.01-1.86 83.39-2.37L83.39-2.37L83.39-2.37Q83.78-2.88 84.10-3.52L84.10-3.52ZM129.28-39.55L129.28-39.55L129.28-39.55Q147.71-39.55 147.71-26.88L147.71-26.88L147.71 0L140.03 0L135.68-4.35L135.68-4.35Q134.53-3.07 132.96-2.05L132.96-2.05L132.96-2.05Q131.39-1.02 129.60-0.32L129.60-0.32L129.60-0.32Q127.81 0.38 125.95 0.77L125.95 0.77L125.95 0.77Q124.10 1.15 122.37 1.15L122.37 1.15L122.37 1.15Q119.10 1.15 116.51 0.48L116.51 0.48L116.51 0.48Q113.92-0.19 112.13-1.66L112.13-1.66L112.13-1.66Q110.34-3.14 109.38-5.57L109.38-5.57L109.38-5.57Q108.42-8 108.42-11.52L108.42-11.52L108.42-11.52Q108.42-25.34 129.28-25.34L129.28-25.34L132.35-25.34L132.35-28.10L132.35-28.10Q131.14-28.16 130.14-28.22L130.14-28.22L130.14-28.22Q129.15-28.29 128.32-28.29L128.32-28.29L128.32-28.29Q119.68-28.29 113.41-26.18L113.41-26.18L111.55-37.18L111.55-37.18Q119.23-39.55 129.28-39.55ZM123.90-13.18L123.90-13.18L123.90-10.05L127.10-10.05L127.10-10.05Q130.43-10.05 131.46-10.82L131.46-10.82L131.46-10.82Q132.35-11.65 132.35-12.80L132.35-12.80L132.35-16.45L129.22-16.45L129.22-16.45Q126.46-16.45 125.18-15.87L125.18-15.87L125.18-15.87Q123.90-15.30 123.90-13.18ZM169.98 0L154.62 0L154.62-38.40L162.30-38.40L166.53-34.11L166.53-34.11Q171.14-38.34 177.92-39.55L177.92-39.55L178.82-25.02L178.82-25.02Q177.92-25.02 176.64-24.77L176.64-24.77L176.64-24.77Q175.36-24.51 174.05-24.13L174.05-24.13L174.05-24.13Q172.74-23.74 171.65-23.20L171.65-23.20L171.65-23.20Q170.56-22.66 169.98-21.95L169.98-21.95L169.98 0ZM231.04-17.79L231.04-29.25L217.98-29.25L217.98-35.71L232.19-35.71L234.11-48L202.62-48L202.62 0L217.98 0L217.98-17.79L231.04-17.79ZM256.90-39.55L256.90-39.55L256.90-39.55Q275.33-39.55 275.33-26.88L275.33-26.88L275.33 0L267.65 0L263.30-4.35L263.30-4.35Q262.14-3.07 260.58-2.05L260.58-2.05L260.58-2.05Q259.01-1.02 257.22-0.32L257.22-0.32L257.22-0.32Q255.42 0.38 253.57 0.77L253.57 0.77L253.57 0.77Q251.71 1.15 249.98 1.15L249.98 1.15L249.98 1.15Q246.72 1.15 244.13 0.48L244.13 0.48L244.13 0.48Q241.54-0.19 239.74-1.66L239.74-1.66L239.74-1.66Q237.95-3.14 236.99-5.57L236.99-5.57L236.99-5.57Q236.03-8 236.03-11.52L236.03-11.52L236.03-11.52Q236.03-25.34 256.90-25.34L256.90-25.34L259.97-25.34L259.97-28.10L259.97-28.10Q258.75-28.16 257.76-28.22L257.76-28.22L257.76-28.22Q256.77-28.29 255.94-28.29L255.94-28.29L255.94-28.29Q247.30-28.29 241.02-26.18L241.02-26.18L239.17-37.18L239.17-37.18Q246.85-39.55 256.90-39.55ZM251.52-13.18L251.52-13.18L251.52-10.05L254.72-10.05L254.72-10.05Q258.05-10.05 259.07-10.82L259.07-10.82L259.07-10.82Q259.97-11.65 259.97-12.80L259.97-12.80L259.97-16.45L256.83-16.45L256.83-16.45Q254.08-16.45 252.80-15.87L252.80-15.87L252.80-15.87Q251.52-15.30 251.52-13.18ZM297.60 0L282.24 0L282.24-38.40L289.92-38.40L294.14-34.11L294.14-34.11Q298.75-38.34 305.54-39.55L305.54-39.55L306.43-25.02L306.43-25.02Q305.54-25.02 304.26-24.77L304.26-24.77L304.26-24.77Q302.98-24.51 301.66-24.13L301.66-24.13L301.66-24.13Q300.35-23.74 299.26-23.20L299.26-23.20L299.26-23.20Q298.18-22.66 297.60-21.95L297.60-21.95L297.60 0ZM309.50-19.20L309.50-19.20L309.50-19.20Q309.50-29.50 314.30-34.53L314.30-34.53L314.30-34.53Q319.10-39.55 329.86-39.55L329.86-39.55L329.86-39.55Q340.61-39.55 345.41-34.53L345.41-34.53L345.41-34.53Q350.21-29.50 350.21-19.20L350.21-19.20L350.21-19.20Q350.21-8.90 345.41-3.87L345.41-3.87L345.41-3.87Q340.61 1.15 329.86 1.15L329.86 1.15L329.86 1.15Q319.36 1.15 314.43-3.78L314.43-3.78L314.43-3.78Q309.50-8.70 309.50-19.20ZM326.02-25.09L326.02-25.09L326.02-10.05L328.38-10.05L328.38-10.05Q331.20-10.05 332.45-10.62L332.45-10.62L332.45-10.62Q333.70-11.20 333.70-13.31L333.70-13.31L333.70-28.35L331.33-28.35L331.33-28.35Q328.51-28.35 327.26-27.78L327.26-27.78L327.26-27.78Q326.02-27.20 326.02-25.09ZM355.58-11.52L355.58-38.40L370.94-38.40L370.94-10.05L373.31-10.05L373.31-10.05Q376.13-10.05 377.38-10.62L377.38-10.62L377.38-10.62Q378.62-11.20 378.62-13.31L378.62-13.31L378.62-38.40L393.98-38.40L393.98 0L386.30 0L381.82-4.35L381.82-4.35Q377.22 1.15 368.70 1.15L368.70 1.15L368.70 1.15Q361.86 1.15 358.72-1.76L358.72-1.76L358.72-1.76Q355.58-4.67 355.58-11.52L355.58-11.52ZM429.82-36.22L429.82-36.22L432.00-38.40L439.68-38.40L439.68 11.58L424.32 12.67L424.32 0L424.32 0Q421.38 1.15 416.64 1.15L416.64 1.15L416.64 1.15Q411.90 1.15 408.70-0.61L408.70-0.61L408.70-0.61Q405.50-2.37 403.62-5.28L403.62-5.28L403.62-5.28Q401.73-8.19 400.93-12.03L400.93-12.03L400.93-12.03Q400.13-15.87 400.13-19.97L400.13-19.97L400.13-19.97Q400.13-24.26 401.18-27.84L401.18-27.84L401.18-27.84Q402.24-31.42 404.45-34.02L404.45-34.02L404.45-34.02Q406.66-36.61 410.08-38.08L410.08-38.08L410.08-38.08Q413.50-39.55 418.18-39.55L418.18-39.55L418.18-39.55Q424.96-39.55 429.82-36.22ZM416.64-25.09L416.64-25.09L416.64-10.05L419.01-10.05L419.01-10.05Q421.82-10.05 423.07-10.62L423.07-10.62L423.07-10.62Q424.32-11.20 424.32-13.31L424.32-13.31L424.32-28.35L421.95-28.35L421.95-28.35Q419.14-28.35 417.89-27.78L417.89-27.78L417.89-27.78Q416.64-27.20 416.64-25.09Z" fill="#ffd5af"></path></g></g><style>text {
  font-size: 64px;
  font-family: Arial Black;
  dominant-baseline: central;
  text-anchor: middle;
}</style></svg>